<svg width="286" height="286" viewBox="0 0 286 286" fill="none" xmlns="http://www.w3.org/2000/svg">
<path d="M105.248 121.79C104.696 119.872 103.84 118.055 102.714 116.408C101.545 114.778 100.183 113.296 98.6586 111.992C92.5782 106.701 84.1984 104.653 76.2762 105.197C72.657 105.415 69.1088 106.297 65.8086 107.799C64.2004 108.549 62.7092 109.528 61.3813 110.705C60.1515 111.797 58.7673 113.142 58.1953 114.709C58.177 114.765 58.1774 114.826 58.1966 114.882C58.2157 114.938 58.2525 114.987 58.3014 115.02C58.3503 115.054 58.4088 115.07 58.468 115.068C58.5272 115.065 58.5841 115.044 58.63 115.006C59.3564 114.434 59.9685 113.714 60.6606 113.084C61.3588 112.461 62.1004 111.887 62.88 111.368C64.4112 110.361 66.0401 109.51 67.742 108.829C74.543 106.083 82.6139 106.152 89.4779 108.634C92.8065 109.849 95.8793 111.675 98.5384 114.017C99.7913 115.124 100.94 116.344 101.97 117.66C103.075 118.998 104.093 120.404 105.019 121.87C105.122 121.95 105.299 121.916 105.248 121.79Z" fill="#263238"/>
<path d="M100.232 110.968C99.5443 109.871 98.6804 108.895 97.6747 108.079C96.6215 107.306 95.5083 106.617 94.3457 106.02C90.088 103.723 85.4266 102.27 80.6177 101.742C78.2976 101.486 75.9516 101.602 73.6679 102.085C72.5857 102.327 71.5181 102.631 70.4704 102.994C69.4035 103.309 68.3894 103.782 67.4617 104.396C67.4399 104.416 67.4252 104.443 67.4195 104.473C67.4139 104.502 67.4177 104.533 67.4303 104.56C67.443 104.587 67.4639 104.61 67.49 104.624C67.5162 104.639 67.5463 104.645 67.5761 104.642C68.8002 104.39 69.9728 103.938 71.2026 103.704C72.4324 103.469 73.5821 103.423 74.7833 103.309C88.8373 102.005 99.0018 110.693 99.9971 111.214C100.031 111.238 100.072 111.249 100.113 111.245C100.154 111.241 100.193 111.223 100.221 111.193C100.25 111.163 100.267 111.124 100.268 111.082C100.27 111.041 100.257 111 100.232 110.968Z" fill="#263238"/>
<path d="M51.6058 155.452C54.4658 157.3 57.8521 155.95 60.0943 153.782C62.4281 151.529 64.0182 148.577 65.2423 145.608C66.3863 142.897 67.1928 140.066 68.1023 137.269C69.0118 134.471 69.8183 131.549 71.2597 128.992C72.6086 126.546 74.8708 124.735 77.5517 123.952C80.4565 123.171 83.5447 123.449 86.2633 124.736C87.7032 125.371 89.0094 126.274 90.1129 127.396C91.1233 128.494 91.9102 129.778 92.4295 131.177C93.6364 134.197 94.2427 137.412 94.9749 140.563C95.5755 143.172 96.8224 145.523 99.2649 146.81C101.347 147.908 103.91 148.24 106.026 147.055C106.057 147.04 106.082 147.014 106.096 146.982C106.11 146.95 106.111 146.914 106.099 146.88C106.088 146.847 106.065 146.819 106.035 146.802C106.004 146.785 105.969 146.779 105.934 146.787C104.601 147.046 103.226 146.994 101.917 146.635C100.607 146.276 99.3982 145.619 98.384 144.716C97.3386 143.658 96.6146 142.325 96.2962 140.872C95.8386 139.156 95.4954 137.389 95.0263 135.661C94.2484 132.801 93.4762 129.672 91.5943 127.293C89.6776 124.988 87.0939 123.333 84.1984 122.557C81.411 121.746 78.4341 121.874 75.7271 122.923C73.0356 124.036 70.8402 126.089 69.5495 128.7C66.8496 133.848 65.9802 139.717 63.8981 145.105C62.94 147.78 61.5103 150.262 59.6767 152.432C57.772 154.56 54.7118 156.139 51.8632 154.955C51.7975 154.923 51.7223 154.919 51.6533 154.942C51.5843 154.965 51.527 155.014 51.4936 155.079C51.4602 155.144 51.4532 155.219 51.4741 155.288C51.4951 155.358 51.5423 155.417 51.6058 155.452Z" fill="#263238"/>
<path d="M50.9824 146.432C52.298 146.609 53.5049 145.62 54.1169 144.533C54.949 142.969 55.5867 141.309 56.016 139.591C56.9222 136.036 58.0688 132.546 59.448 129.146C61.736 123.821 65.2995 118.684 70.4304 115.733C72.9727 114.252 75.8079 113.345 78.7375 113.076C81.6671 112.806 84.6203 113.18 87.3902 114.171C90.0276 115.133 92.4382 116.629 94.4715 118.564C96.564 120.623 98.2485 123.058 99.4365 125.743C100.624 128.525 101.599 131.393 102.354 134.323C102.691 135.495 103.166 136.92 104.298 137.555C104.721 137.819 105.224 137.925 105.717 137.854C106.21 137.783 106.662 137.539 106.993 137.166C107.056 137.091 106.953 137.011 106.884 137.057C106.563 137.27 106.18 137.369 105.796 137.338C105.412 137.307 105.05 137.147 104.768 136.885C104.156 136.366 103.751 135.646 103.624 134.855C103.24 133.276 102.931 131.686 102.48 130.113C101.634 126.917 100.301 123.87 98.527 121.081C96.9289 118.688 94.8732 116.634 92.4783 115.039C90.0834 113.443 87.3965 112.337 84.5724 111.785C81.7484 111.232 78.8428 111.243 76.023 111.817C73.2033 112.392 70.525 113.518 68.1424 115.132C63.2003 118.484 59.8541 123.649 57.6405 129.1C56.4964 132.088 55.5412 135.145 54.7805 138.252C54.403 139.824 53.937 141.373 53.3848 142.891C53.1263 143.557 52.8205 144.203 52.4696 144.825C52.3432 145.11 52.1431 145.357 51.8898 145.54C51.6365 145.723 51.3391 145.836 51.0281 145.866C50.953 145.86 50.8786 145.884 50.8212 145.932C50.7638 145.981 50.7282 146.051 50.7221 146.126C50.716 146.201 50.7401 146.276 50.7889 146.333C50.8377 146.39 50.9073 146.426 50.9824 146.432Z" fill="#263238"/>
<path d="M52.5783 157.923C52.5698 157.987 52.5857 158.051 52.6229 158.103C52.6601 158.155 52.7157 158.191 52.7785 158.204C53.2428 158.314 53.7153 158.387 54.1913 158.421C54.4047 158.433 54.6186 158.433 54.832 158.421C57.3545 158.295 59.98 156.865 62.6226 154.171C64.8565 151.891 66.6966 149.257 68.068 146.375C69.1494 143.905 69.9811 141.334 70.5505 138.699C70.7336 137.961 70.9223 137.217 71.1225 136.485C71.746 134.14 72.8786 130.765 75.4354 128.637C76.2983 127.918 77.3116 127.402 78.4006 127.127C79.4896 126.851 80.6265 126.824 81.7274 127.047C83.4366 127.394 85.0563 128.088 86.486 129.087C87.9158 130.085 89.1249 131.367 90.0386 132.853C91.4715 135.241 91.9879 138.069 91.4914 140.809C90.8836 143.771 89.4452 146.499 87.3444 148.674C85.1569 150.926 82.5642 152.744 79.7025 154.034C78.4899 154.606 76.8826 155.367 75.2352 155.973L74.2914 156.322C73.0902 156.762 71.8547 157.208 70.6706 157.729C70.5939 157.766 70.5331 157.83 70.4994 157.908C70.4657 157.986 70.4613 158.074 70.487 158.155C70.5127 158.236 70.5667 158.306 70.6393 158.35C70.7119 158.395 70.7982 158.412 70.8823 158.398C71.7117 158.221 72.5297 157.992 73.2904 157.769C78.8102 156.185 85.6856 153.622 89.8784 147.839C91.7733 145.333 92.8731 142.317 93.0358 139.179C93.1106 136.301 92.2162 133.48 90.4962 131.171C88.3318 128.196 85.0907 126.185 81.4643 125.565C80.2709 125.369 79.0498 125.42 77.8769 125.715C76.704 126.01 75.6043 126.544 74.646 127.281C72.5296 128.923 70.9738 131.537 69.8927 135.289C69.5953 136.308 69.3207 137.349 69.0748 138.355C68.5291 140.792 67.7633 143.173 66.7868 145.471C65.4051 148.467 63.4967 151.191 61.1526 153.513C59.2364 155.401 56.2505 157.649 52.8929 157.655C52.8158 157.65 52.7399 157.675 52.6812 157.725C52.6225 157.776 52.5856 157.847 52.5783 157.923Z" fill="#263238"/>
<path d="M51.4801 149.732C52.1939 149.893 52.9355 149.884 53.645 149.705C54.3545 149.526 55.012 149.183 55.5642 148.703C56.8168 147.702 57.4632 146.037 57.978 144.562C59.1735 141.13 60.1001 137.583 61.2899 134.134C63.1374 128.757 65.8659 123.266 70.7107 120.028C72.8895 118.596 75.3491 117.646 77.9247 117.242C80.5004 116.837 83.1328 116.988 85.6456 117.683C88.4271 118.47 90.9485 119.985 92.9501 122.071C94.7856 124.105 96.2406 126.454 97.2458 129.003C97.7778 130.284 98.2354 131.589 98.6415 132.916C99.0129 134.32 99.4558 135.704 99.9685 137.063C100.907 139.316 103.269 142.022 105.992 140.906C106.036 140.885 106.072 140.85 106.094 140.806C106.116 140.762 106.123 140.712 106.114 140.664C106.105 140.616 106.08 140.572 106.043 140.539C106.007 140.507 105.961 140.487 105.912 140.483C105.153 140.413 104.419 140.178 103.761 139.796C103.102 139.414 102.534 138.893 102.096 138.27C101.13 136.908 100.758 135.227 100.317 133.642C99.5468 130.683 98.4092 127.831 96.9312 125.154C95.6136 122.785 93.8199 120.715 91.6631 119.073C89.3284 117.386 86.6343 116.262 83.7924 115.79C81.1915 115.365 78.532 115.465 75.9702 116.083C73.4084 116.701 70.996 117.824 68.8746 119.388C64.167 122.906 61.4844 128.42 59.6482 133.859C58.6129 136.914 57.8121 140.031 56.8626 143.109C56.1419 145.454 54.8663 149.401 51.6631 148.88C51.5575 148.873 51.4529 148.904 51.3684 148.968C51.2839 149.032 51.2252 149.124 51.2029 149.227C51.1807 149.331 51.1965 149.439 51.2474 149.531C51.2983 149.624 51.3809 149.696 51.4801 149.732Z" fill="#263238"/>
<path d="M51.2455 151.975C51.6218 152.399 52.0762 152.746 52.584 152.999C53.6364 153.525 55.1751 153.353 56.2276 152.93C57.521 152.338 58.607 151.372 59.345 150.156C60.1517 148.856 60.8335 147.483 61.3813 146.054C62.0391 144.47 62.6111 142.84 63.1717 141.215C64.3157 137.949 65.3396 134.655 66.6037 131.428C67.7019 128.568 69.069 125.84 71.3684 123.758C73.4157 121.88 75.9573 120.626 78.6937 120.144C81.4301 119.663 84.2471 119.974 86.8124 121.041C89.444 122.146 91.6821 124.018 93.236 126.412C94.952 129.026 95.7299 132.075 96.485 135.055C97.1599 137.709 97.7033 140.575 99.4022 142.8C100.815 144.659 103.824 146.129 105.809 144.195C105.829 144.177 105.843 144.152 105.847 144.124C105.85 144.097 105.844 144.069 105.828 144.046C105.813 144.023 105.79 144.006 105.763 143.999C105.736 143.992 105.708 143.994 105.683 144.007C104.264 144.71 102.6 144.23 101.416 143.269C100.325 142.314 99.5079 141.086 99.0475 139.711C97.8749 136.674 97.4116 133.419 96.3362 130.324C95.4561 127.581 93.9208 125.094 91.8632 123.077C89.8876 121.19 87.4799 119.815 84.8505 119.073C82.1821 118.381 79.3801 118.392 76.7169 119.104C74.0538 119.815 71.6201 121.204 69.6524 123.134C67.4731 125.325 66.106 128.088 65.0021 130.942C63.8009 134.071 62.8285 137.286 61.7417 140.46C61.1697 142.085 60.5977 143.698 59.9628 145.305C59.4799 146.69 58.8771 148.03 58.161 149.309C57.501 150.501 56.4681 151.444 55.2209 151.992C54.6399 152.249 54.001 152.347 53.3698 152.275C52.7385 152.204 52.1376 151.966 51.6287 151.586C51.3656 151.386 51.051 151.757 51.2455 151.975Z" fill="#263238"/>
<path d="M106.484 135.467C106.527 134.724 106.527 133.979 106.484 133.236C105.889 127.104 103.273 121.343 99.0476 116.86C95.1337 112.619 89.9194 109.801 84.2271 108.852C78.6338 107.998 72.9134 108.877 67.8336 111.368C62.7789 113.864 58.6178 117.859 55.9188 122.808C53.1427 127.687 51.8897 133.285 52.3209 138.882C52.3209 139.002 52.5154 138.979 52.5211 138.882C52.8833 132.842 54.8435 127.007 58.2011 121.973C61.1876 117.581 65.3897 114.154 70.2932 112.112C75.1861 110.105 80.5786 109.653 85.7372 110.819C91.0507 112.139 95.7836 115.167 99.2078 119.439C101.016 121.705 102.473 124.229 103.532 126.927C104.578 129.718 105.406 132.587 106.009 135.507C106.095 135.724 106.466 135.724 106.484 135.467Z" fill="#263238"/>
<path d="M97.7492 156.099C98.3784 155.172 99.7283 155.99 100.426 156.379C101.473 156.951 102.6 157.735 103.858 157.523C103.879 157.516 103.901 157.518 103.92 157.528C103.94 157.537 103.954 157.554 103.961 157.575C103.968 157.595 103.966 157.617 103.957 157.637C103.947 157.656 103.93 157.671 103.91 157.678C103.501 157.879 103.053 157.987 102.598 157.993C102.143 157.999 101.692 157.903 101.278 157.712C100.833 157.529 100.398 157.323 99.9742 157.094C99.5732 156.862 99.1447 156.682 98.6987 156.556C98.6171 156.545 98.5343 156.545 98.4527 156.556C98.3669 156.556 98.3898 156.556 98.3784 156.585C98.2983 156.734 98.4241 157.048 98.4699 157.197C98.5757 157.584 98.7234 157.958 98.9103 158.312C99.3075 159.042 99.8106 159.709 100.403 160.292C100.737 160.633 101.09 160.953 101.461 161.253C101.839 161.556 102.285 161.784 102.645 162.105C102.675 162.121 102.697 162.148 102.707 162.18C102.716 162.212 102.713 162.247 102.697 162.276C102.681 162.306 102.654 162.328 102.622 162.338C102.59 162.347 102.555 162.344 102.525 162.328C102.09 162.193 101.675 162 101.29 161.756C100.888 161.52 100.505 161.252 100.146 160.955C99.42 160.358 98.8094 159.633 98.344 158.816C98.1103 158.409 97.9187 157.98 97.772 157.535C97.6559 157.314 97.5933 157.069 97.5893 156.819C97.5853 156.57 97.6401 156.323 97.7492 156.099Z" fill="#263238"/>
<path d="M99.6653 157.872C100.348 158.185 100.985 158.589 101.559 159.073C101.814 159.287 102.077 159.487 102.348 159.674C102.48 159.765 102.623 159.851 102.76 159.931C102.901 160.003 103.046 160.066 103.195 160.12C103.223 160.128 103.248 160.146 103.265 160.169C103.283 160.193 103.293 160.222 103.293 160.252C103.293 160.281 103.283 160.31 103.265 160.334C103.248 160.357 103.223 160.375 103.195 160.383C102.514 160.549 101.799 160.103 101.284 159.714C100.635 159.243 100.057 158.68 99.5681 158.044C99.488 157.986 99.5566 157.872 99.6653 157.872Z" fill="#263238"/>
<path d="M54.952 159.971C54.9493 159.984 54.9493 159.998 54.952 160.011C54.9559 160.058 54.9747 160.102 55.0057 160.137C55.0366 160.172 55.0779 160.196 55.1236 160.206C55.2922 160.249 55.4646 160.276 55.6384 160.286C56.2431 160.295 56.846 160.218 57.4288 160.057C58.2448 159.864 59.0384 159.586 59.7969 159.228C61.2794 158.511 62.651 157.584 63.8695 156.476C68.0165 152.85 70.9337 147.685 72.541 141.112C72.644 140.678 72.7527 140.237 72.8556 139.803C73.4276 137.429 73.9996 134.981 75.3152 132.939C76.007 131.859 76.9488 130.962 78.0608 130.324C79.2192 129.743 80.5069 129.468 81.8017 129.524C81.8684 129.521 81.9322 129.496 81.9833 129.453C82.0343 129.41 82.0698 129.351 82.0841 129.286C82.0985 129.221 82.0909 129.153 82.0626 129.092C82.0343 129.032 81.9868 128.982 81.9276 128.952C80.4461 128.225 78.6042 128.912 77.8835 129.238C76.6055 129.844 75.4856 130.739 74.6117 131.852C72.8957 133.974 72.255 136.697 71.6373 139.328L71.4771 139.986C70.8172 142.958 69.7972 145.84 68.4398 148.566C67.0443 151.241 65.1739 153.641 62.92 155.647C61.8289 156.648 60.614 157.506 59.305 158.198C58.6326 158.536 57.9368 158.824 57.2229 159.062C56.9826 159.142 56.7367 159.205 56.4907 159.273C56.0073 159.387 55.5374 159.552 55.0893 159.765C55.0499 159.784 55.0163 159.813 54.9921 159.849C54.9679 159.886 54.9541 159.928 54.952 159.971Z" fill="#263238"/>
<path d="M69.3035 156.728C69.3002 156.772 69.3092 156.816 69.3293 156.856C69.3495 156.895 69.3802 156.928 69.4179 156.951C69.4514 156.975 69.4911 156.989 69.5323 156.991C69.574 156.993 69.6155 156.984 69.6526 156.965C69.6897 156.946 69.7212 156.917 69.744 156.882C70.2454 156.264 70.9059 155.793 71.6545 155.521C72.3294 155.206 73.033 154.949 73.7137 154.669L74.0225 154.543C75.893 153.811 77.4145 153.159 78.8102 152.489C84.9992 149.521 88.6886 145.677 89.7926 141.049C90.4194 138.582 90.1097 135.969 88.9231 133.716C88.3846 132.644 87.6282 131.696 86.7023 130.933C85.7765 130.169 84.7016 129.608 83.5463 129.283C83.4781 129.266 83.4057 129.273 83.3426 129.305C83.2795 129.336 83.2299 129.39 83.2031 129.455C83.1759 129.515 83.172 129.582 83.1921 129.645C83.2122 129.707 83.2549 129.76 83.3118 129.793C85.5287 131.077 87.2613 133.054 88.2425 135.421C89.4951 138.739 88.8888 144.161 83.043 148.548C80.8571 150.092 78.5025 151.382 76.0245 152.392C74.789 152.936 73.3933 153.536 72.0549 154.263C71.5006 154.541 70.9722 154.868 70.4761 155.241C70.02 155.626 69.6331 156.087 69.3321 156.602C69.3094 156.64 69.2993 156.684 69.3035 156.728Z" fill="#263238"/>
<path d="M53.1216 161.132C53.9623 161.638 54.916 161.925 55.8958 161.968C57.6898 161.995 59.4612 161.566 61.0438 160.721C63.3981 159.476 65.5331 157.855 67.3644 155.921C67.5418 155.738 67.7076 155.55 67.8792 155.349L68.0337 155.184C68.0747 155.164 68.1116 155.137 68.1424 155.104C69.5895 153.662 71.5744 152.861 73.4791 152.083C74.1426 151.815 74.8348 151.511 75.4811 151.237C78.6786 149.75 80.8579 148.274 82.5396 146.443C84.2449 144.676 85.3204 142.397 85.5998 139.957C85.8 137.841 85.3024 134.889 83.2603 133.516C81.2183 132.143 78.6328 133.122 77.117 134.775C75.3553 136.702 74.4572 139.425 73.7308 141.639L73.4791 142.411C72.8184 144.623 71.9727 146.776 70.9509 148.846C69.8212 150.985 68.4069 152.961 66.7467 154.72C65.0953 156.47 63.2133 157.986 61.1525 159.228C58.4412 160.846 55.7986 161.338 53.3104 160.709H53.2646C53.2129 160.707 53.1617 160.721 53.1178 160.748C53.0739 160.776 53.0394 160.816 53.0187 160.864C53.0025 160.913 53.0038 160.967 53.0226 161.016C53.0413 161.065 53.0763 161.106 53.1216 161.132ZM70.4532 152.152C70.8651 151.58 71.2254 151.008 71.5458 150.436C72.74 148.314 73.699 146.068 74.4058 143.738C74.5259 143.366 74.6403 142.994 74.7661 142.594C75.4239 140.512 76.1046 138.355 77.3115 136.536C77.8892 135.565 78.7548 134.797 79.7883 134.34C80.2593 134.154 80.7641 134.071 81.2698 134.094C81.8736 134.117 82.4496 134.354 82.8942 134.763C84.6102 136.365 84.7189 139.299 84.0382 141.496C83.2632 143.701 81.847 145.625 79.9713 147.021C77.8492 148.709 75.3381 149.835 73.1073 150.831L72.8957 150.922C72.1006 151.34 71.2483 151.723 70.4532 152.152Z" fill="#263238"/>
<path d="M74.1769 148.342C74.1632 148.393 74.1646 148.447 74.1809 148.496C74.1971 148.546 74.2276 148.59 74.2685 148.623C74.3105 148.657 74.3627 148.678 74.4172 148.68C74.4536 148.682 74.49 148.676 74.5237 148.662C74.5574 148.648 74.5875 148.627 74.6117 148.6C74.7375 148.474 75.6642 147.811 76.1103 147.507C76.2533 147.41 76.402 147.319 76.545 147.216C76.8482 147.015 77.1628 146.81 77.4602 146.581C78.3521 145.906 79.1898 145.162 79.9656 144.356C81.4642 142.783 82.1678 141.21 82.0419 139.671C82.0398 139.291 81.9316 138.92 81.7294 138.598C81.5273 138.277 81.2393 138.018 80.8979 137.852C80.4826 137.713 80.0338 137.709 79.6164 137.842C79.1989 137.975 78.8344 138.236 78.5756 138.59C78.0553 139.283 77.6497 140.056 77.3744 140.878C77.1113 141.541 76.8768 142.234 76.6423 142.897L76.4535 143.435C75.8101 145.036 75.0591 146.591 74.2055 148.091C74.1784 148.126 74.1614 148.168 74.1564 148.213C74.1513 148.257 74.1584 148.302 74.1769 148.342ZM77.0999 144.384C77.6397 142.974 78.2742 141.602 78.9989 140.277L79.0332 140.22C79.2277 139.877 79.691 139.076 80.1372 138.985H80.2344C80.3286 138.993 80.4182 139.028 80.4918 139.088C80.8808 139.391 80.8236 140.232 80.6405 140.866C80.2173 142.388 78.9246 143.618 77.9178 144.607L77.117 145.374C76.8425 145.631 76.5736 145.894 76.3048 146.157C76.648 145.523 76.8939 144.899 77.0999 144.384Z" fill="#263238"/>
<path d="M77.7921 174.151C76.804 176.114 75.9181 178.126 75.138 180.18C75.1361 180.193 75.1384 180.207 75.1448 180.219C75.1512 180.231 75.1612 180.24 75.1733 180.246C75.1855 180.252 75.1991 180.253 75.2123 180.251C75.2255 180.248 75.2376 180.241 75.2467 180.232C76.3621 178.573 77.2887 176.8 78.3355 175.084C79.0219 173.98 80.2631 171.4 81.9391 171.817C82.6426 171.989 83.146 172.767 83.5349 173.322C84.0449 174.089 84.5987 174.826 85.1937 175.53C86.1089 176.571 87.8249 177.932 89.3236 177.566C89.3922 177.566 89.4323 177.44 89.3636 177.406C88.9632 177.194 88.5399 177.063 88.1453 176.834C87.7102 176.588 87.3068 176.291 86.9441 175.947C86.2441 175.233 85.6263 174.442 85.1022 173.591C84.2442 172.264 83.2432 170.513 81.3785 170.731C79.6511 170.931 78.4727 172.744 77.7921 174.151Z" fill="#263238"/>
<path d="M53.0415 162.614C54.8548 164.999 58.098 164.576 60.4432 163.306C61.7947 162.521 63.07 161.611 64.2527 160.589C65.5038 159.534 66.8435 158.589 68.2567 157.763C68.2742 157.758 68.2888 157.746 68.2974 157.73C68.306 157.714 68.3078 157.695 68.3025 157.678C68.2972 157.66 68.2852 157.645 68.2691 157.637C68.253 157.628 68.2342 157.626 68.2167 157.632C65.3167 158.095 63.2231 160.492 60.8608 162.002C58.6414 163.432 55.4211 164.29 53.1331 162.482C53.0759 162.414 52.9843 162.54 53.0415 162.614Z" fill="#263238"/>
<path d="M100.266 167.133C100.449 167.133 100.523 166.858 100.335 166.812C97.4059 166.086 95.095 163.889 93.6765 161.275C92.3934 158.893 91.6531 156.256 91.5086 153.553C91.3763 151.521 91.6765 149.484 92.3895 147.576C92.5778 146.94 92.9061 146.353 93.3504 145.86C93.4511 145.732 93.5779 145.628 93.7223 145.553C93.8666 145.478 94.0253 145.435 94.1877 145.426C94.3501 145.417 94.5125 145.444 94.664 145.503C94.8155 145.562 94.9527 145.652 95.0664 145.769C95.3794 146.203 95.6604 146.66 95.9072 147.136C96.5806 148.145 97.4769 148.987 98.527 149.595C99.572 150.203 100.751 150.543 101.959 150.585C103.242 150.618 104.508 150.291 105.614 149.641C105.688 149.595 105.654 149.452 105.563 149.481C104.038 149.946 102.41 149.95 100.883 149.492C99.3563 149.034 97.9991 148.135 96.9826 146.907C96.2848 146.009 95.9072 144.619 94.5745 144.516C93.2417 144.413 92.3151 145.477 91.7889 146.581C90.6173 149.226 90.2321 152.153 90.6792 155.012C91.3827 160.051 94.4143 166.864 100.266 167.133Z" fill="#263238"/>
<path d="M79.1019 178.281C78.9184 178.802 78.8349 179.353 78.856 179.905C78.8602 179.922 78.8689 179.937 78.8812 179.949C78.8935 179.96 78.9088 179.969 78.9254 179.972C78.9421 179.976 78.9594 179.975 78.9754 179.969C78.9914 179.963 79.0055 179.953 79.0161 179.94C79.2816 179.524 79.484 179.071 79.6167 178.596C79.794 178.104 79.9771 177.612 80.1887 177.131C80.3973 176.648 80.642 176.182 80.9209 175.736C81.0126 175.539 81.1363 175.359 81.287 175.204L81.327 175.175L81.4185 175.267C81.5045 175.349 81.5847 175.437 81.6588 175.53C82.2396 176.328 82.866 177.092 83.5349 177.818C84.1069 178.35 85.0164 178.927 85.8229 178.744C85.8339 178.739 85.8432 178.731 85.8497 178.721C85.8562 178.711 85.8596 178.699 85.8596 178.687C85.8596 178.675 85.8562 178.663 85.8497 178.653C85.8432 178.643 85.8339 178.635 85.8229 178.63C85.3637 178.395 84.9385 178.098 84.5588 177.749C84.2048 177.382 83.8851 176.984 83.6036 176.559C83.2775 176.113 82.9858 175.638 82.6312 175.209C82.2765 174.78 81.8818 174.225 81.3156 174.225C80.7493 174.225 80.4804 174.735 80.2574 175.141C79.9858 175.626 79.7562 176.133 79.571 176.656C79.4165 177.194 79.2449 177.732 79.1019 178.281Z" fill="#263238"/>
<path d="M101.633 164.05C101.655 164.056 101.679 164.055 101.7 164.046C101.721 164.037 101.738 164.021 101.749 164C101.759 163.98 101.762 163.956 101.756 163.934C101.751 163.911 101.737 163.892 101.719 163.878C101.016 163.285 100.365 162.632 99.774 161.927C99.211 161.193 98.6878 160.43 98.2067 159.639C97.249 158.279 96.4289 156.827 95.7586 155.304C95.4124 154.564 95.2327 153.758 95.2323 152.941C95.341 151.797 96.4907 152.632 96.9884 153.061C97.542 153.604 98.1347 154.105 98.7616 154.56C100.007 155.362 101.485 155.722 102.96 155.584C103.669 155.458 104.352 155.212 104.979 154.858C105.122 154.795 105.019 154.6 104.876 154.646C104.315 154.783 103.737 154.837 103.16 154.806C102.686 154.815 102.212 154.786 101.742 154.72C100.765 154.568 99.8353 154.194 99.0247 153.628C98.0523 152.936 96.2677 150.613 94.9063 151.734C93.728 152.701 94.6375 154.949 95.1122 156.047C95.8979 157.714 96.8565 159.294 97.9722 160.761C98.8874 162.019 100.1 163.523 101.633 164.05Z" fill="#263238"/>
<path d="M56.6909 168.425C57.9376 168.673 59.232 168.456 60.3289 167.813C60.5634 167.688 60.7807 167.545 61.0095 167.402C60.8894 167.539 60.775 167.67 60.6663 167.808C59.8806 168.767 59.3881 169.933 59.2478 171.165C59.2474 171.182 59.2523 171.199 59.2618 171.213C59.2713 171.226 59.2849 171.237 59.3007 171.243C59.3165 171.248 59.3338 171.249 59.3499 171.244C59.3661 171.24 59.3804 171.23 59.3908 171.217C60.0314 170.239 60.6892 169.255 61.4214 168.357C62.1535 167.459 63.0058 166.572 63.7094 165.628C63.7367 165.587 63.7512 165.538 63.7512 165.488C63.7513 165.438 63.7367 165.389 63.7095 165.347C63.6822 165.305 63.6433 165.272 63.5976 165.252C63.5519 165.232 63.5013 165.226 63.452 165.234C62.2393 165.508 61.3299 166.378 60.2545 166.95C59.1167 167.546 57.9156 168.012 56.6738 168.34C56.628 168.34 56.628 168.414 56.6909 168.425Z" fill="#263238"/>
<path d="M69.9671 173.779C69.3165 174.991 68.7434 176.242 68.2511 177.526C68.2351 177.557 68.2322 177.593 68.2429 177.626C68.2537 177.66 68.2772 177.687 68.3083 177.703C68.3394 177.719 68.3755 177.722 68.4088 177.711C68.442 177.701 68.4697 177.677 68.4856 177.646C69.458 176.336 70.2416 174.883 71.1454 173.522C72.0491 172.161 72.9472 170.925 73.931 169.684C75.4951 167.663 77.3905 165.923 79.5366 164.536C80.0867 164.185 80.66 163.871 81.2526 163.598C81.8635 163.252 82.5476 163.056 83.2489 163.026C84.5187 163.094 85.3424 164.313 85.9087 165.257C87.2758 167.545 88.4427 169.958 90.5591 171.703C91.486 172.51 92.6047 173.066 93.808 173.316C94.3205 173.464 94.8667 173.448 95.3696 173.27C95.524 173.173 95.6213 173.03 95.4668 172.893C95.4153 172.853 95.3353 172.893 95.3696 172.973C95.4039 173.053 94.6317 172.898 94.5974 172.887L94.1055 172.75C93.7599 172.643 93.4249 172.505 93.1045 172.338C92.4932 172.019 91.9179 171.635 91.3885 171.194C90.259 170.184 89.311 168.989 88.5857 167.659C87.9279 166.544 87.3444 165.371 86.6123 164.301C86.0423 163.336 85.1727 162.582 84.1355 162.156C82.8313 161.733 81.51 162.202 80.3317 162.728C79.195 163.243 78.1188 163.882 77.1228 164.633C75.0913 166.174 73.3484 168.062 71.9748 170.21C71.2437 171.364 70.5735 172.555 69.9671 173.779Z" fill="#263238"/>
<path d="M73.2447 176.33C72.8426 177.286 72.5583 178.287 72.3981 179.311C72.3966 179.327 72.4008 179.344 72.41 179.358C72.4192 179.372 72.4328 179.382 72.4487 179.388C72.4646 179.393 72.4818 179.393 72.4975 179.387C72.5132 179.381 72.5266 179.371 72.5354 179.356C73.1074 178.361 73.5078 177.257 74.1027 176.262C74.6976 175.267 75.2467 174.283 75.8187 173.327C76.8888 171.612 78.1287 170.008 79.5195 168.54C80.1773 167.871 80.9495 167.299 81.9105 167.396C82.8118 167.578 83.621 168.07 84.1985 168.786C85.4912 170.233 86.0861 172.218 87.4188 173.636C88.0095 174.284 88.7466 174.781 89.5686 175.085C90.3906 175.39 91.2735 175.493 92.1436 175.387C92.2008 175.387 92.2179 175.267 92.1436 175.249C91.0236 174.981 89.9742 174.476 89.0662 173.768C88.1812 173.008 87.4526 172.083 86.9212 171.045C85.9374 169.329 84.9821 167.464 83.1231 166.606C82.3079 166.215 81.3718 166.157 80.5148 166.446C79.6215 166.836 78.8363 167.436 78.2268 168.197C76.7737 169.772 75.5228 171.522 74.5031 173.408C74.0147 174.351 73.5942 175.328 73.2447 176.33Z" fill="#263238"/>
<path d="M64.9678 175.364C64.954 175.409 64.9575 175.458 64.9775 175.502C64.9975 175.545 65.0327 175.579 65.0764 175.598H65.1508C65.1833 175.599 65.2154 175.591 65.2444 175.576C65.2733 175.561 65.2981 175.539 65.3167 175.512C66.1821 174.159 67.1196 172.853 68.1252 171.6C69.1818 170.315 70.3105 169.091 71.5057 167.933C73.4862 165.911 75.6018 164.024 77.8378 162.288C78.9411 161.447 80.139 160.739 81.407 160.177C82.614 159.651 84.267 158.936 85.411 159.954C86.0751 160.643 86.6012 161.453 86.9612 162.339C87.1213 162.671 87.2815 162.991 87.4474 163.295C88.1426 164.587 88.9605 165.809 89.8898 166.944C90.7921 168.051 91.8727 169.001 93.0873 169.752C94.2486 170.484 95.5732 170.916 96.9426 171.011C96.9894 171.016 97.0363 171.003 97.0736 170.974C97.1109 170.945 97.1357 170.903 97.1428 170.856C97.1552 170.812 97.1496 170.764 97.1271 170.723C97.1046 170.683 97.0671 170.652 97.0226 170.639C93.2188 169.306 90.7764 166.395 89.4036 164.187C89.0204 163.569 88.6714 162.9 88.3454 162.259C88.0194 161.619 87.6819 160.972 87.2929 160.354C86.4635 159.01 85.3996 158.324 84.1526 158.284C82.654 158.244 81.0982 158.896 79.9141 159.456C78.6131 160.085 77.3838 160.852 76.2476 161.744C73.9495 163.613 71.8052 165.664 69.8355 167.876C67.7934 170.078 65.78 172.515 64.9678 175.364Z" fill="#263238"/>
<path d="M100.672 165.931C100.861 166.023 100.975 165.743 100.832 165.628C98.9166 164.171 97.2645 162.397 95.9473 160.383C94.8686 158.628 94.1239 156.689 93.7508 154.663C93.5532 153.626 93.4517 152.573 93.4477 151.517C93.4477 150.745 93.2475 148.794 94.38 148.789C95.5126 148.783 96.1361 150.144 96.7939 150.796C97.5453 151.559 98.4316 152.176 99.4079 152.615C100.376 153.069 101.454 153.236 102.514 153.097C103.574 152.958 104.572 152.519 105.391 151.832C105.404 151.821 105.413 151.806 105.415 151.789C105.418 151.772 105.414 151.755 105.405 151.741C105.396 151.727 105.382 151.717 105.365 151.712C105.349 151.708 105.332 151.71 105.317 151.717C102.8 153.119 99.4994 152.026 97.5546 150.15C96.7653 149.395 96.1246 148.302 95.0035 147.999C94.7768 147.911 94.5338 147.871 94.2907 147.884C94.0476 147.897 93.81 147.961 93.5936 148.072C93.3772 148.184 93.187 148.34 93.0356 148.53C92.8842 148.721 92.7751 148.942 92.7155 149.178C92.4876 150.231 92.4221 151.313 92.521 152.387C92.573 153.474 92.7379 154.553 93.013 155.607C94.1398 159.794 96.7367 163.941 100.672 165.931Z" fill="#263238"/>
<path d="M63.3547 171.297C62.8972 172.086 62.5562 172.938 62.3423 173.825C62.3199 173.93 62.3344 174.04 62.3834 174.136C62.4323 174.232 62.5127 174.308 62.6111 174.351C62.6538 174.366 62.6979 174.375 62.7427 174.38C62.8133 174.383 62.8834 174.367 62.9458 174.334C63.0082 174.301 63.0605 174.252 63.0973 174.191C63.4348 173.671 63.7551 173.139 64.0754 172.612C64.7575 171.429 65.5221 170.296 66.3634 169.22C67.6166 167.706 68.9777 166.283 70.4361 164.965C73.3823 162.503 76.4666 160.211 79.6739 158.101C84.2499 155.058 87.3901 153.45 88.1109 153.782C88.6028 154.011 88.6257 154.829 88.6485 155.498C88.6486 155.689 88.6581 155.88 88.6771 156.07C88.7944 157.007 88.9625 157.937 89.1805 158.856C89.5643 160.616 90.2266 162.304 91.1425 163.855C91.9844 165.267 93.1269 166.476 94.4887 167.396C95.2323 167.882 97.1599 168.975 98.9331 168.637C98.9793 168.619 99.0193 168.588 99.0482 168.548C99.0772 168.507 99.0939 168.459 99.0963 168.41C99.0987 168.36 99.0868 168.311 99.0619 168.268C99.037 168.225 99.0002 168.191 98.956 168.168C98.6643 168.054 98.384 167.951 98.0923 167.848C97.4789 167.639 96.8807 167.389 96.3019 167.098C95.4661 166.647 94.6962 166.083 94.0139 165.422C92.6269 164.026 91.5832 162.326 90.9651 160.457C90.3888 158.636 90.0054 156.759 89.8211 154.858C89.8162 154.452 89.7194 154.053 89.5381 153.691C89.3568 153.328 89.0957 153.011 88.7744 152.764C88.0994 152.324 86.9383 152.627 86.3663 152.873C83.083 154.28 72.5353 161.018 68.3311 164.919C67.0233 166.162 65.8447 167.534 64.8133 169.015C64.2853 169.748 63.7983 170.51 63.3547 171.297Z" fill="#263238"/>
<path d="M55.0036 165.914C57.2058 166.87 59.8141 165.914 61.8218 164.919C63.8295 163.924 65.4826 162.58 67.3645 161.487C67.8507 161.213 68.3369 160.955 68.8403 160.721C69.0919 160.606 69.3493 160.498 69.6067 160.4C69.7383 160.349 69.8927 160.252 70.03 160.297C70.1673 160.343 70.1959 160.297 70.0872 160.406C69.9785 160.515 70.0186 160.503 69.9785 160.549C69.3265 161.361 68.3026 161.945 67.5189 162.62C65.9161 163.974 64.4592 165.493 63.1717 167.15C61.9591 168.723 60.695 170.53 60.3117 172.515C60.3117 172.612 60.4261 172.647 60.4776 172.578C61.2498 171.526 61.8962 170.382 62.6627 169.323C63.4154 168.292 64.2473 167.32 65.1509 166.418C65.9574 165.605 66.7982 164.822 67.6505 164.061C68.5028 163.3 69.4008 162.648 70.1673 161.842C70.6993 161.27 71.6488 160.126 70.6077 159.554C69.7669 159.096 68.5199 159.88 67.7763 160.252C65.6714 161.304 63.7723 162.728 61.7246 163.861C60.6708 164.455 59.5518 164.925 58.3898 165.262C57.2817 165.546 56.1466 165.711 55.0036 165.754C54.9121 165.76 54.9121 165.88 55.0036 165.914Z" fill="#263238"/>
<path d="M81.2698 177.068C81.2689 177.047 81.2689 177.026 81.2698 177.005C81.2768 176.986 81.2881 176.968 81.3031 176.953C81.318 176.938 81.3361 176.927 81.356 176.921C81.3758 176.914 81.397 176.912 81.4177 176.915C81.4385 176.918 81.4584 176.925 81.4758 176.937L81.5215 176.965C81.7217 177.04 81.8533 177.331 81.9276 177.503C82.002 177.675 82.1164 177.932 82.2136 178.138C82.4024 178.55 82.5683 178.973 82.7856 179.379C82.7973 179.397 82.8021 179.418 82.799 179.439C82.7958 179.46 82.7851 179.479 82.7687 179.493C82.7524 179.506 82.7317 179.513 82.7105 179.512C82.6893 179.511 82.6692 179.503 82.6541 179.488C82.2487 179.212 81.9025 178.858 81.6359 178.447C81.5163 178.247 81.4112 178.038 81.3213 177.823C81.2651 177.688 81.2285 177.546 81.2126 177.4C81.1957 177.286 81.2158 177.17 81.2698 177.068Z" fill="#263238"/>
<path d="M36.465 115.361H34.749V95.3066H54.8033V97.0226H36.465V115.361Z" fill="#448BFF"/>
<path d="M122.917 183.469H102.863V181.753H121.201V163.415H122.917V183.469Z" fill="#448BFF"/>
<path d="M54.8033 183.469H34.749V163.415H36.465V181.753H54.8033V183.469Z" fill="#448BFF"/>
<path d="M122.917 115.361H121.201V97.0226H102.863V95.3066H122.917V115.361Z" fill="#448BFF"/>
<path d="M127.333 187.891H125.977V187.462H126.904V186.535H127.333V187.891Z" fill="#448BFF"/>
<path d="M123.678 187.891H121.39V187.462H123.678V187.891ZM119.102 187.891H116.814V187.462H119.102V187.891ZM114.526 187.891H112.238V187.462H114.526V187.891ZM109.95 187.891H107.662V187.462H109.95V187.891ZM105.374 187.891H103.086V187.462H105.374V187.891ZM100.798 187.891H98.5099V187.462H100.798V187.891ZM96.2219 187.891H93.9339V187.462H96.2219V187.891ZM91.6459 187.891H89.3579V187.462H91.6459V187.891ZM87.0699 187.891H84.7819V187.462H87.0699V187.891ZM82.4939 187.891H80.2059V187.462H82.4939V187.891ZM77.9179 187.891H75.6299V187.462H77.9179V187.891ZM73.3419 187.891H71.0539V187.462H73.3419V187.891ZM68.7659 187.891H66.4779V187.462H68.7659V187.891ZM64.1899 187.891H61.9019V187.462H64.1899V187.891ZM59.6139 187.891H57.3259V187.462H59.6139V187.891ZM55.0379 187.891H52.7499V187.462H55.0379V187.891ZM50.4619 187.891H48.1739V187.462H50.4619V187.891ZM45.8859 187.891H43.5979V187.462H45.8859V187.891ZM41.3099 187.891H39.0219V187.462H41.3099V187.891ZM36.7339 187.891H34.4459V187.462H36.7339V187.891Z" fill="#448BFF"/>
<path d="M31.6889 187.891H30.3333V186.535H30.7623V187.462H31.6889V187.891Z" fill="#448BFF"/>
<path d="M30.7622 184.23H30.316V181.942H30.745L30.7622 184.23ZM30.7622 179.654H30.316V177.366H30.745L30.7622 179.654ZM30.7622 175.078H30.316V172.79H30.745L30.7622 175.078ZM30.7622 170.502H30.316V168.214H30.745L30.7622 170.502ZM30.7622 165.926H30.316V163.638H30.745L30.7622 165.926ZM30.7622 161.35H30.316V159.062H30.745L30.7622 161.35ZM30.7622 156.774H30.316V154.486H30.745L30.7622 156.774ZM30.7622 152.198H30.316V149.91H30.745L30.7622 152.198ZM30.7622 147.622H30.316V145.334H30.745L30.7622 147.622ZM30.7622 143.046H30.316V140.758H30.745L30.7622 143.046ZM30.7622 138.47H30.316V136.182H30.745L30.7622 138.47ZM30.7622 133.894H30.316V131.606H30.745L30.7622 133.894ZM30.7622 129.318H30.316V127.03H30.745L30.7622 129.318ZM30.7622 124.742H30.316V122.454H30.745L30.7622 124.742ZM30.7622 120.166H30.316V117.878H30.745L30.7622 120.166ZM30.7622 115.561H30.316V113.273H30.745L30.7622 115.561ZM30.7622 110.985H30.316V108.697H30.745L30.7622 110.985ZM30.7622 106.409H30.316V104.121H30.745L30.7622 106.409ZM30.7622 101.833H30.316V99.5452H30.745L30.7622 101.833ZM30.7622 97.2572H30.316V94.9692H30.745L30.7622 97.2572Z" fill="#448BFF"/>
<path d="M30.7623 92.2465H30.3333V90.8908H31.6889V91.3198H30.7623V92.2465Z" fill="#448BFF"/>
<path d="M123.678 91.3198H121.39V90.8908H123.678V91.3198ZM119.102 91.3198H116.814V90.8908H119.102V91.3198ZM114.526 91.3198H112.238V90.8908H114.526V91.3198ZM109.95 91.3198H107.662V90.8908H109.95V91.3198ZM105.374 91.3198H103.086V90.8908H105.374V91.3198ZM100.798 91.3198H98.5099V90.8908H100.798V91.3198ZM96.2219 91.3198H93.9339V90.8908H96.2219V91.3198ZM91.6459 91.3198H89.3579V90.8908H91.6459V91.3198ZM87.0699 91.3198H84.7819V90.8908H87.0699V91.3198ZM82.4939 91.3198H80.2059V90.8908H82.4939V91.3198ZM77.9179 91.3198H75.6299V90.8908H77.9179V91.3198ZM73.3419 91.3198H71.0539V90.8908H73.3419V91.3198ZM68.7659 91.3198H66.4779V90.8908H68.7659V91.3198ZM64.1899 91.3198H61.9019V90.8908H64.1899V91.3198ZM59.6139 91.3198H57.3259V90.8908H59.6139V91.3198ZM55.0379 91.3198H52.7499V90.8908H55.0379V91.3198ZM50.4619 91.3198H48.1739V90.8908H50.4619V91.3198ZM45.8859 91.3198H43.5979V90.8908H45.8859V91.3198ZM41.3099 91.3198H39.0219V90.8908H41.3099V91.3198ZM36.7339 91.3198H34.4459V90.8908H36.7339V91.3198Z" fill="#448BFF"/>
<path d="M127.333 92.2465H126.904V91.3198H125.977V90.8908H127.333V92.2465Z" fill="#448BFF"/>
<path d="M127.333 184.23H126.904V181.942H127.333V184.23ZM127.333 179.654H126.904V177.366H127.333V179.654ZM127.333 175.078H126.904V172.79H127.333V175.078ZM127.333 170.502H126.904V168.214H127.333V170.502ZM127.333 165.926H126.904V163.638H127.333V165.926ZM127.333 161.35H126.904V159.062H127.333V161.35ZM127.333 156.774H126.904V154.486H127.333V156.774ZM127.333 152.198H126.904V149.91H127.333V152.198ZM127.333 147.622H126.904V145.334H127.333V147.622ZM127.333 143.046H126.904V140.758H127.333V143.046ZM127.333 138.47H126.904V136.182H127.333V138.47ZM127.333 133.894H126.904V131.606H127.333V133.894ZM127.333 129.318H126.904V127.03H127.333V129.318ZM127.333 124.742H126.904V122.454H127.333V124.742ZM127.333 120.166H126.904V117.878H127.333V120.166ZM127.333 115.561H126.904V113.273H127.333V115.561ZM127.333 110.985H126.904V108.697H127.333V110.985ZM127.333 106.409H126.904V104.121H127.333V106.409ZM127.333 101.833H126.904V99.5452H127.333V101.833ZM127.333 97.2572H126.904V94.9692H127.333V97.2572Z" fill="#448BFF"/>
<path d="M155.224 253.968H208.042C208.477 252.252 208.894 250.593 209.318 248.946C209.798 247.039 210.269 245.192 210.731 243.403C210.828 243.003 210.936 242.602 211.039 242.208C211.388 240.829 211.726 239.485 212.063 238.204C212.263 237.403 212.464 236.619 212.635 235.847C212.807 235.075 213.036 234.28 213.207 233.525C213.259 233.325 213.31 233.119 213.362 232.953C213.413 232.787 213.47 232.512 213.522 232.301L213.722 231.517C213.796 231.242 213.865 230.974 213.928 230.705C214.065 230.196 214.191 229.698 214.311 229.206C214.5 228.485 214.677 227.776 214.855 227.084C214.929 226.787 215.009 226.483 215.083 226.192C215.209 225.705 215.329 225.236 215.444 224.779C215.524 224.47 215.598 224.167 215.673 223.875C215.987 222.662 216.273 221.524 216.542 220.443C216.616 220.163 216.679 219.871 216.754 219.619C216.868 219.156 216.982 218.716 217.091 218.287C217.166 218.018 217.228 217.76 217.291 217.503C217.526 216.594 217.738 215.787 217.921 215.038C217.972 214.843 218.018 214.654 218.069 214.466L218.395 213.173C218.435 213.024 218.47 212.876 218.51 212.738C218.55 212.601 218.584 212.447 218.613 212.321C218.641 212.195 218.664 212.132 218.681 212.052C218.698 211.972 218.75 211.794 218.779 211.691C218.787 211.637 218.801 211.583 218.819 211.531L218.939 211.051H167.596C167.596 211.051 165.88 216.891 163.192 226.3C162.62 228.217 162.048 230.304 161.413 232.478C159.588 238.696 157.489 246.017 155.224 253.968Z" fill="#37474F"/>
<path d="M199.393 253.968H200.709C202.665 245.876 204.56 237.771 206.395 229.652C206.837 227.677 207.274 225.7 207.705 223.721L207.825 223.149C207.828 223.129 207.824 223.109 207.813 223.092C207.802 223.075 207.785 223.063 207.766 223.058C207.746 223.053 207.726 223.055 207.708 223.065C207.69 223.074 207.677 223.09 207.67 223.109L207.619 223.292C207.024 225.412 206.433 227.538 205.846 229.669C203.632 237.735 201.481 245.834 199.393 253.968Z" fill="#263238"/>
<path d="M169.238 210.999L171.526 222.359L173.368 231.66L176.536 247.533L176.862 249.163L177.406 251.874L177.812 253.928H208.048C208.477 252.212 208.9 250.547 209.318 248.906C209.798 246.999 210.269 245.152 210.731 243.363C210.828 242.963 210.936 242.562 211.039 242.168C211.388 240.789 211.726 239.445 212.063 238.164C212.264 237.363 212.464 236.579 212.635 235.807C212.807 235.035 213.036 234.24 213.207 233.485C213.259 233.284 213.31 233.079 213.362 232.913C213.413 232.747 213.47 232.472 213.522 232.261L213.722 231.477C213.796 231.202 213.865 230.934 213.928 230.665C214.065 230.156 214.191 229.658 214.311 229.166C214.5 228.445 214.677 227.736 214.855 227.044C214.935 226.741 215.009 226.443 215.083 226.152C215.209 225.665 215.329 225.196 215.444 224.739C215.524 224.43 215.598 224.127 215.673 223.835C215.987 222.622 216.273 221.484 216.542 220.403C216.616 220.123 216.679 219.831 216.754 219.579C216.868 219.116 216.983 218.676 217.091 218.247C217.166 217.978 217.228 217.72 217.291 217.463C217.526 216.553 217.738 215.747 217.921 214.998C217.972 214.803 218.018 214.614 218.069 214.426L218.395 213.133C218.435 212.984 218.47 212.835 218.51 212.698C218.55 212.561 218.584 212.406 218.613 212.281C218.641 212.155 218.664 212.092 218.681 212.012C218.699 211.932 218.75 211.754 218.779 211.651C218.787 211.597 218.801 211.543 218.819 211.491L218.939 211.011L169.238 210.999Z" fill="#263238"/>
<path d="M169.232 210.982C169.232 211.268 169.449 214.334 169.941 218.99C170.084 220.357 170.25 221.85 170.445 223.463C170.748 226.003 171.12 228.8 171.589 231.757C172.378 236.905 173.408 242.545 174.746 248.048C175.221 250.027 175.747 251.989 176.302 253.911H242.654C241.87 243.798 241.155 234.652 240.589 227.444C239.788 217.297 239.285 210.942 239.285 210.942H179.087L169.232 210.982Z" fill="#37474F"/>
<path d="M169.375 217.08C169.449 219.454 169.546 221.827 169.701 224.19C169.861 226.752 170.096 229.309 170.433 231.866C170.439 231.96 170.451 232.054 170.467 232.146C170.784 234.541 171.142 236.93 171.543 239.313C171.926 241.533 172.206 243.929 173.19 245.989C173.563 246.782 174.09 247.494 174.74 248.082C175.34 248.627 176.071 249.006 176.862 249.18C176.992 249.213 177.124 249.234 177.257 249.243C177.291 249.243 177.331 249.243 177.371 249.243C177.347 249.256 177.326 249.276 177.313 249.3C177.3 249.325 177.294 249.353 177.297 249.381C177.326 250.176 177.297 250.988 177.394 251.777C177.394 251.812 177.394 251.846 177.394 251.88C177.474 252.567 177.6 253.247 177.726 253.934H178.87C178.87 253.934 178.87 253.934 178.87 253.894C178.67 253.144 178.504 252.389 178.298 251.606C178.092 250.822 177.84 250.084 177.663 249.318C177.654 249.286 177.634 249.26 177.606 249.243C178.329 249.28 179.047 249.093 179.661 248.708C180.274 248.324 180.755 247.76 181.038 247.093C181.326 246.076 181.345 245.002 181.095 243.975L180.477 239.897C180.088 237.403 179.591 234.932 179.145 232.461C179.082 232.083 179.013 231.706 178.944 231.317C178.058 226.266 177.125 221.21 176.01 216.205C175.97 215.999 175.919 215.793 175.873 215.581C175.827 215.369 175.621 215.484 175.633 215.615C175.667 215.953 175.701 216.29 175.741 216.628C175.936 218.55 176.165 220.46 176.428 222.348C176.748 224.59 176.971 226.844 177.286 229.086L177.612 231.374C178.126 235.063 178.664 238.753 179.293 242.425C179.591 244.141 180.655 247.19 178.195 247.722C177.633 247.847 177.044 247.772 176.531 247.51C175.447 246.865 174.634 245.849 174.243 244.65C173.545 242.694 173.299 240.543 172.938 238.507C172.53 236.261 172.172 234.009 171.863 231.752C171.463 228.937 171.051 226.123 170.605 223.315C170.387 221.879 170.159 220.455 169.93 219.013C169.827 218.355 169.718 217.692 169.609 217.028C169.592 216.897 169.375 216.937 169.375 217.08Z" fill="#263238"/>
<path d="M228.096 234.72C225.333 234.693 222.584 234.324 219.911 233.622C218.676 233.302 217.457 232.907 216.25 232.512C215.051 232.178 213.929 231.615 212.944 230.853C211.085 229.246 210.216 226.718 209.409 224.476C208.526 221.945 207.81 219.36 207.264 216.736C207.236 216.605 207.047 216.645 207.041 216.771C206.989 219.742 207.374 222.704 208.185 225.562C208.854 227.988 209.752 230.71 211.714 232.426C213.774 234.211 216.576 234.84 219.213 235.166C222.18 235.513 225.18 235.472 228.136 235.046C228.158 235.044 228.179 235.037 228.197 235.026C228.216 235.016 228.233 235.001 228.246 234.984C228.259 234.967 228.269 234.948 228.275 234.927C228.28 234.906 228.282 234.885 228.279 234.863C228.277 234.842 228.27 234.821 228.259 234.802C228.249 234.784 228.235 234.767 228.218 234.754C228.201 234.74 228.181 234.731 228.16 234.725C228.14 234.719 228.118 234.718 228.096 234.72Z" fill="#263238"/>
<path d="M232.695 216.788C232.844 220.506 233 224.224 233.164 227.942C233.546 236.602 233.963 245.262 234.417 253.922H235.664C235.092 245.239 234.491 236.566 233.862 227.902C233.588 224.188 233.305 220.481 233.016 216.782C233.015 216.74 232.997 216.699 232.967 216.67C232.936 216.64 232.895 216.624 232.853 216.625C232.81 216.626 232.77 216.643 232.74 216.674C232.711 216.704 232.695 216.746 232.695 216.788Z" fill="#263238"/>
<path d="M176.599 134.512C150.459 158.072 126.223 183.875 124.324 197.043C121.699 215.278 132.904 220.34 137.938 220.386C151.62 220.523 176.485 165.073 185.134 143.904C193.53 123.346 182.342 129.335 176.599 134.512Z" fill="#FFBF9D"/>
<path d="M137.143 172.218L166.212 188.016C166.212 188.016 184.281 154.634 188.445 139.162C192.61 123.689 186.392 124.124 172.744 136.17C159.096 148.217 137.143 172.218 137.143 172.218Z" fill="#C7C7C7"/>
<path d="M137.143 172.218L166.212 188.016C166.212 188.016 184.281 154.634 188.445 139.162C192.61 123.689 186.392 124.124 172.744 136.17C159.096 148.217 137.143 172.218 137.143 172.218Z" fill="#39847B"/>
<path opacity="0.1" d="M188.445 139.156C184.281 154.634 166.206 188.022 166.206 188.022L139.74 173.631L188.485 127.813C190.11 129.06 190.179 132.738 188.445 139.156Z" fill="black"/>
<path d="M143.126 167.762C154.331 175.347 165.194 180.272 167.373 181.524C167.476 181.587 167.562 181.416 167.453 181.358C165.251 180.243 153.325 172.818 143.212 167.579C143.097 167.516 143 167.688 143.126 167.762Z" fill="#263238"/>
<path d="M159.657 231.609L244.776 231.854C244.776 231.854 237.34 167.79 206.097 129.976C198.867 121.218 187.221 125.972 182.308 130.628C169.838 142.428 159.416 231.3 159.657 231.609Z" fill="#327EA8"/>
<path d="M188.937 126.492C190.979 127.985 192.941 129.632 194.903 131.16L200.623 135.593C202.339 136.937 204.055 138.453 206.006 139.511C207.762 140.472 209.804 140.901 211.686 140.043C212.146 139.829 212.578 139.56 212.973 139.242L213.167 139.545C212.209 140.342 211.024 140.818 209.781 140.906C207.899 141.015 206.143 140.157 204.633 139.128C202.723 137.835 200.944 136.342 199.119 134.929C195.578 132.189 192.083 129.329 188.445 126.709C188.588 126.635 188.76 126.561 188.937 126.492ZM222.886 177.452C225.897 177.433 228.904 177.7 231.866 178.247C231.797 178.046 231.723 177.841 231.643 177.64C229.04 177.164 226.401 176.917 223.755 176.902C216.05 176.759 205.743 177.24 201.087 169.69C199.251 166.715 198.656 162.763 200.675 159.714C202.454 157.025 205.777 155.864 208.894 155.893C210.52 155.903 212.129 156.221 213.636 156.831C215.416 157.643 217.059 158.727 218.504 160.046C221.273 162.402 223.852 165.165 227.319 166.475L227.044 165.811C226.012 165.368 225.034 164.81 224.127 164.147C220.906 161.819 218.304 158.593 214.723 156.774C211.982 155.391 208.841 155.017 205.851 155.716C202.991 156.408 200.446 158.267 199.388 161.098C198.209 164.256 199.13 167.871 201.012 170.565C205.851 177.469 215.375 177.354 222.886 177.452ZM209.821 148.016C212.073 146.937 214.402 146.025 216.788 145.288C216.685 145.122 216.582 144.945 216.473 144.779C210.982 146.318 205.909 149.79 200.246 150.762C193.374 151.851 186.341 150.402 180.46 146.684C178.849 145.676 177.346 144.505 175.976 143.189C175.907 143.372 175.844 143.555 175.781 143.761C177.091 144.992 178.512 146.099 180.026 147.067C185.705 150.705 192.463 152.276 199.165 151.517C202.923 151.008 206.378 149.572 209.821 148.016ZM214.969 208.791C219.166 210.308 223.455 211.558 227.81 212.532C232.638 213.676 238.61 214.637 242.511 217.903C242.459 217.623 242.402 217.331 242.345 217.063C238.45 214.094 232.861 213.144 228.211 212.058C223.843 211.074 219.539 209.825 215.324 208.317C211.703 206.984 208.122 205.194 205.474 202.305C204.332 201.083 203.45 199.641 202.882 198.068C202.314 196.495 202.071 194.823 202.168 193.153C202.391 189.778 204.313 186.707 207.636 185.654C211.2 184.51 215.175 185.854 218.149 187.885C221.547 190.213 223.99 193.708 226.604 196.819C229.08 199.788 231.826 202.539 235.447 204.038C236.805 204.614 238.252 204.952 239.725 205.039C239.685 204.873 239.651 204.696 239.605 204.524C236.717 204.341 233.885 202.923 231.643 201.184C228.342 198.633 225.974 195.081 223.257 191.957C220.769 189.097 217.921 186.558 214.248 185.368C211.068 184.338 207.413 184.441 204.725 186.632C202.379 188.554 201.447 191.666 201.607 194.612C201.802 197.833 203.174 200.87 205.462 203.146C208.082 205.794 211.503 207.499 214.963 208.78L214.969 208.791ZM204.622 223.36C204.015 226.123 204.301 228.949 204.135 231.74H204.662C204.862 228.308 204.318 224.722 205.743 221.49C206.083 220.663 206.598 219.92 207.252 219.312C207.907 218.704 208.686 218.245 209.535 217.966C211.437 217.476 213.452 217.702 215.198 218.601C218.893 220.409 220.866 224.321 222.662 227.799C223.36 229.132 224.075 230.51 224.899 231.803H225.517C223.48 228.714 222.182 225.191 219.986 222.193C217.863 219.333 214.672 216.965 210.925 217.217C207.453 217.452 205.314 220.151 204.616 223.36H204.622ZM171.251 231.66H171.926C172.688 230.318 173.232 228.865 173.539 227.353C174.363 223.555 174.111 219.625 173.848 215.781C173.219 206.875 171.68 197.78 173.631 188.932C174.376 185.307 175.788 181.853 177.795 178.744C179.9 175.598 182.943 172.641 186.621 171.44C187.588 171.08 188.618 170.92 189.649 170.968C190.68 171.016 191.691 171.272 192.621 171.72C194.188 172.602 195.428 173.966 196.156 175.61C198.015 179.568 196.865 184.047 195.092 187.81C191.62 195.155 185.986 201.344 183.189 209.043C181.952 212.481 181.434 216.137 181.669 219.784C181.903 223.43 182.884 226.99 184.55 230.241C184.802 230.728 185.065 231.208 185.345 231.683H185.969C184.593 229.423 183.567 226.968 182.926 224.401C181.988 220.749 181.867 216.935 182.571 213.23C183.349 209.226 185.128 205.548 187.147 202.07C189.166 198.593 191.574 195.206 193.628 191.654C195.681 188.102 197.672 184.115 197.632 179.877C197.592 176.605 196.07 173.139 193.176 171.428C189.744 169.392 185.631 170.776 182.628 172.916C176.719 177.131 173.722 184.207 172.624 191.185C171.194 200.292 172.984 209.489 173.413 218.607C173.591 222.245 173.579 226.003 172.304 229.475C172.034 230.24 171.681 230.972 171.251 231.66ZM179.785 154.783C177.948 153.227 175.642 152.333 173.236 152.244C173.196 152.392 173.156 152.552 173.11 152.701C173.687 152.729 174.26 152.8 174.826 152.913C178.338 153.611 181.896 156.345 181.936 160.206C181.988 164.41 178.418 167.533 174.963 169.272C172.939 170.29 170.816 171.079 168.74 171.955C168.706 172.138 168.666 172.315 168.631 172.527C169.947 171.955 171.285 171.463 172.635 170.914C176.21 169.449 179.814 167.482 181.593 163.878C182.379 162.382 182.629 160.661 182.3 159.003C181.971 157.344 181.083 155.849 179.785 154.766V154.783Z" fill="white"/>
<path d="M212.075 132.836C236.865 151.866 262.714 184.184 263.12 202.82C263.503 221.238 253.156 219.408 251.417 218.836C232.999 213.116 210.805 162.008 202.58 141.204C194.411 120.572 205.92 128.128 212.075 132.836Z" fill="#FFBF9D"/>
<path d="M251.903 169.958L223.12 186.278C223.12 186.278 204.45 153.222 200.011 137.823C195.572 122.425 201.802 122.763 215.69 134.552C229.578 146.34 251.903 169.958 251.903 169.958Z" fill="#39847B"/>
<path d="M245.84 165.611C234.766 173.39 223.995 178.515 221.816 179.802C221.713 179.865 221.627 179.694 221.73 179.637C223.909 178.493 235.704 170.845 245.72 165.428C245.863 165.365 245.96 165.537 245.84 165.611Z" fill="#263238"/>
<path d="M224.968 185.151C224.382 185.377 223.809 185.634 223.252 185.923C220.489 180.426 220.992 181.684 218.172 176.199C216.796 173.53 215.415 170.847 214.031 168.151C212.601 165.359 211.32 162.431 209.741 159.742C209.733 159.726 209.718 159.713 209.7 159.707C209.683 159.701 209.663 159.703 209.647 159.711C209.63 159.719 209.617 159.734 209.611 159.752C209.605 159.769 209.607 159.789 209.615 159.805C210.53 162.448 211.772 165.011 212.944 167.562C212.687 167.167 212.441 166.761 212.155 166.378C211.52 165.525 210.896 164.662 210.336 163.769C210.244 163.632 210.015 163.741 210.101 163.884C210.673 164.742 211.119 165.628 211.594 166.532C212.069 167.436 212.589 168.288 213.121 169.158C213.653 170.027 214.208 170.782 214.78 171.577L214.986 171.875C215.741 173.47 216.473 175.072 217.274 176.651C220.043 182.182 222.891 186.535 222.994 186.506C223.722 186.159 224.42 185.754 225.082 185.294C225.128 185.248 225.048 185.145 224.968 185.151Z" fill="#263238"/>
<path d="M139.202 219.74C147.736 218.493 152.57 202.642 162.042 177.412C163.701 172.984 141.673 147.627 138.681 151.706C134.912 156.854 124.953 185.334 123.935 193.079C121.973 208.34 129.272 221.198 139.202 219.74Z" fill="#FFBF9D"/>
<path d="M152.329 202.94C153.096 200.795 153.908 198.667 154.726 196.539L157.203 190.173C158.061 188.062 158.884 185.94 159.714 183.824C160.137 182.764 160.545 181.702 160.938 180.638C161.344 179.574 161.739 178.504 162.042 177.406C161.567 179.639 160.927 181.834 160.126 183.972C159.376 186.129 158.547 188.257 157.735 190.384C156.923 192.512 156.019 194.612 155.126 196.705C154.234 198.799 153.296 200.886 152.329 202.94Z" fill="#263238"/>
<path d="M130.776 169.993C131.972 161.333 134.414 149.252 137.509 146.718C140.758 144.064 152.558 135.181 155.962 134.002C159.365 132.824 174.557 127.041 177.349 128.654C179.585 129.947 176.937 135.821 169.712 138.641C163.357 141.112 160.086 143.423 158.272 144.207C156.459 144.991 151.98 151.008 153.182 153.662C153.897 155.224 158.45 157.06 161.281 155.778C164.113 154.497 164.81 148.914 168.042 146.255C171.274 143.595 176.983 143.932 177.314 145.471C177.646 147.01 175.758 147.73 172.841 152.97C170.965 156.333 170.839 164.41 166.584 170.21C164.444 173.122 160.732 180.866 160.732 180.866L130.776 169.993Z" fill="#FFBF9D"/>
<path d="M171.062 143.864C172.107 143.713 173.087 143.269 173.888 142.582C174.211 142.273 174.435 141.875 174.534 141.438C174.572 141.2 174.572 140.957 174.534 140.718C174.526 140.462 174.429 140.217 174.26 140.026C174.203 139.986 174.288 139.917 174.317 139.974C174.394 140.095 174.48 140.209 174.574 140.317C174.641 140.42 174.697 140.529 174.74 140.643C174.826 140.87 174.867 141.111 174.86 141.353C174.837 141.882 174.636 142.388 174.288 142.788C173.871 143.216 173.361 143.541 172.797 143.74C172.234 143.938 171.632 144.004 171.039 143.932C171.028 143.95 171.028 143.875 171.062 143.864Z" fill="#263238"/>
<path d="M137.509 146.718C140.26 142.399 147.301 134.597 154.28 131.92C158.993 130.107 175.226 138.001 174.757 141.101C174.288 144.201 171.514 144.218 167.407 143.732C165.914 143.555 158.004 140.718 156.654 142.377C154.72 144.767 152.261 152.918 152.261 152.918L137.509 146.718Z" fill="#FFBF9D"/>
<path d="M174.351 139.888C172.344 136.571 167.939 134.803 163.552 133.408C163.483 133.408 163.443 133.488 163.512 133.511C164.627 133.865 171.777 137.148 174.306 139.946C174.334 139.974 174.374 139.923 174.351 139.888Z" fill="#263238"/>
<path d="M137.509 146.718C140.26 142.399 147.301 134.597 154.28 131.92C158.993 130.107 171.84 140.209 171.365 143.315C170.891 146.421 166.915 146.667 162.511 145.139C161.087 144.642 156.316 141.29 154.966 142.949C153.033 145.334 148.314 151.26 148.314 151.26L137.509 146.718Z" fill="#FFBF9D"/>
<path d="M151.008 147.576C151.454 146.895 151.58 146.655 152.055 145.98C152.529 145.305 152.97 144.642 153.473 144.007C153.864 143.415 154.356 142.896 154.926 142.474C155.516 142.138 156.198 142.001 156.871 142.085C158.398 142.228 159.777 143.194 161.075 143.938C162.522 144.767 165.52 146.112 167.819 145.866C168.451 145.829 169.068 145.661 169.632 145.374C170.059 145.178 170.431 144.879 170.713 144.504C171.709 142.788 170.462 140.889 169.192 139.522C166.818 136.977 163.626 135.135 160.532 133.619C159.771 133.247 159.005 132.898 158.244 132.544C157.382 132.084 156.433 131.813 155.458 131.749C153.862 131.749 151.248 133.362 150.442 133.854C150.379 133.888 150.333 133.791 150.39 133.751C151.374 133.139 153.822 131.148 156.373 131.274C157.314 131.416 158.221 131.722 159.056 132.178C159.954 132.561 160.841 132.979 161.716 133.413C163.424 134.253 165.064 135.222 166.624 136.313C168.088 137.36 169.649 138.601 170.628 140.106C171.084 140.772 171.351 141.549 171.401 142.354C171.452 143.16 171.283 143.964 170.914 144.682C170.21 145.826 168.706 146.135 168.019 146.226C167.345 146.315 166.663 146.315 165.989 146.226C164.488 145.902 163.012 145.472 161.573 144.939C160.177 144.367 158.919 143.44 157.483 143.006C157.144 142.89 156.785 142.842 156.428 142.867C156.07 142.891 155.721 142.987 155.401 143.149C154.814 143.541 154.29 144.019 153.845 144.567C152.885 145.512 152.016 146.544 151.248 147.65C151.059 147.971 150.848 147.873 151.008 147.576Z" fill="#263238"/>
<path d="M135.472 150.493C136.479 148.434 138.178 139.957 139.814 137.337C141.45 134.717 148.909 125.743 152.398 126.132C156.785 126.618 152.221 134.517 149.927 137.772C147.633 141.027 148.028 146.558 148.028 146.558L135.472 150.493Z" fill="#FFBF9D"/>
<path d="M153.124 132.401C152.306 133.43 151.586 134.574 150.876 135.678C150.146 136.704 149.492 137.783 148.92 138.905C148.44 140.053 148.152 141.272 148.068 142.514C148.011 143.126 147.994 143.732 147.988 144.344C147.982 144.956 148.045 145.688 148.034 146.352C148.031 146.361 148.03 146.37 148.031 146.379C148.033 146.388 148.036 146.396 148.042 146.403C148.047 146.411 148.054 146.417 148.062 146.421C148.07 146.425 148.079 146.427 148.088 146.427C148.097 146.427 148.106 146.425 148.114 146.421C148.122 146.417 148.129 146.411 148.134 146.403C148.14 146.396 148.143 146.388 148.144 146.379C148.146 146.37 148.145 146.361 148.142 146.352C148.22 145.132 148.379 143.919 148.617 142.72C148.83 141.472 149.197 140.256 149.71 139.099C150.733 136.811 152.232 134.752 153.273 132.47C153.296 132.384 153.182 132.327 153.124 132.401Z" fill="#263238"/>
<path d="M148.079 147.507C148.143 148.534 148.357 149.546 148.714 150.51C149.039 151.49 149.433 152.446 149.893 153.37C150.337 154.293 150.831 155.191 151.374 156.059C151.9 156.934 152.518 157.723 153.164 158.558C154.479 160.189 155.527 162.017 156.27 163.975C156.967 165.934 157.315 168 157.3 170.078C157.11 168.03 156.628 166.019 155.87 164.107C155.057 162.227 153.993 160.467 152.707 158.873C152.053 158.062 151.449 157.212 150.899 156.328C150.362 155.432 149.884 154.501 149.469 153.542C148.68 151.637 147.948 149.601 148.079 147.507Z" fill="#263238"/>
<path d="M179.374 135.404C179.497 136.747 179.688 138.084 179.946 139.408C180.148 140.614 180.46 141.799 180.878 142.949C181.696 145.013 183.257 146.953 185.666 147.484C186.786 147.699 187.937 147.687 189.053 147.448C190.168 147.209 191.224 146.749 192.158 146.095C194.154 144.779 195.71 142.914 197.134 141.101C198.023 139.98 198.856 138.824 199.634 137.635C200.023 137.028 200.423 136.433 200.778 135.81C201.132 135.186 201.47 134.557 201.87 133.962C201.905 133.911 202.008 133.962 201.979 134.002C201.201 135.41 198.867 139.871 198.089 140.975C196.665 142.989 195.115 145.042 193.05 146.529C191.072 148.034 188.586 148.711 186.117 148.417C184.934 148.232 183.818 147.747 182.875 147.009C181.932 146.272 181.194 145.305 180.729 144.201C180.183 142.883 179.834 141.491 179.694 140.071C179.499 138.516 179.396 136.948 179.328 135.387C179.339 135.387 179.374 135.387 179.374 135.404Z" fill="#263238"/>
<path d="M187.616 143.601C192.867 143.458 199.342 133.671 201.069 126.675C201.184 126.195 194.995 109.91 194.102 106.552C193.908 105.866 174.386 117.26 174.386 117.26C174.386 117.26 178.327 123.741 179.843 129.598C179.963 130.09 182.537 143.738 187.616 143.601Z" fill="#FFBF9D"/>
<path d="M174.386 117.26C174.386 117.26 178.327 123.741 179.843 129.604C179.843 129.718 180.037 130.57 180.34 131.806C190.104 128.22 194.846 120.366 197.02 115.086C195.687 111.391 194.457 107.919 194.102 106.564C193.908 105.866 174.386 117.26 174.386 117.26Z" fill="#263238"/>
<path d="M163.174 79.3078C161.922 79.5194 157.717 89.5065 158.33 93.8766C158.942 98.2467 161.796 106.712 163.1 106.672C164.404 106.632 164.164 79.1419 163.174 79.3078Z" fill="#263238"/>
<path d="M193.216 83.1802C197.529 90.0042 199.479 112.587 195.504 118.833C189.721 127.888 177.314 131.989 168.877 124.387C160.692 117.008 158.667 87.5332 163.397 81.5558C170.353 72.7527 186.844 73.1016 193.216 83.1802Z" fill="#FFBF9D"/>
<path d="M176.988 97.6004C177.654 97.6937 178.324 97.7529 178.996 97.7777C179.768 97.8349 180.38 97.9664 181.084 97.5718C181.27 97.4371 181.407 97.2448 181.473 97.0246C181.539 96.8044 181.531 96.5685 181.45 96.3534C181.049 95.4554 180.123 95.1465 179.196 95.0378C178.268 94.892 177.318 95.0958 176.531 95.6098C176.354 95.7377 176.22 95.9146 176.143 96.1185C176.067 96.3224 176.052 96.5442 176.101 96.7564C176.15 96.9686 176.26 97.1618 176.418 97.3118C176.576 97.4619 176.774 97.5623 176.988 97.6004Z" fill="#263238"/>
<path d="M177.892 102.531C177.892 102.468 178.018 102.588 178.024 102.651C178.132 104.178 178.515 105.906 179.94 106.272C179.985 106.272 179.991 106.358 179.94 106.358C178.212 106.295 177.726 103.99 177.892 102.531Z" fill="#263238"/>
<path d="M179.065 100.804C181.496 100.363 182.188 105.254 179.94 105.654C177.692 106.055 177.034 101.17 179.065 100.804Z" fill="#263238"/>
<path d="M169.129 103.532C169.129 103.475 169.02 103.624 169.032 103.681C169.295 105.191 169.341 106.958 168.042 107.656C168.002 107.656 168.042 107.753 168.042 107.742C169.707 107.29 169.615 104.939 169.129 103.532Z" fill="#263238"/>
<path d="M167.55 102.165C165.091 102.331 165.594 107.239 167.871 107.09C170.147 106.941 169.615 102.033 167.55 102.165Z" fill="#263238"/>
<path d="M165.308 99.5623C165.944 99.3351 166.569 99.0754 167.178 98.7844C167.893 98.4755 168.494 98.3039 168.934 97.6404C169.037 97.4341 169.069 97.1998 169.026 96.9735C168.982 96.7472 168.866 96.5414 168.694 96.3877C167.922 95.7757 166.95 95.9358 166.074 96.2676C165.181 96.5763 164.435 97.2063 163.981 98.0351C163.891 98.2291 163.86 98.4448 163.89 98.6563C163.92 98.8678 164.011 99.0661 164.151 99.2274C164.291 99.3887 164.475 99.506 164.68 99.5655C164.885 99.6249 165.103 99.6238 165.308 99.5623Z" fill="#263238"/>
<path d="M181.015 114.909C180.706 115.315 180.443 115.853 179.871 115.979C179.306 116.049 178.733 115.999 178.189 115.83C178.184 115.826 178.177 115.824 178.171 115.822C178.164 115.821 178.157 115.821 178.151 115.822C178.144 115.824 178.138 115.826 178.132 115.83C178.126 115.834 178.122 115.839 178.118 115.844C178.114 115.85 178.112 115.856 178.11 115.863C178.109 115.87 178.109 115.876 178.11 115.883C178.112 115.89 178.114 115.896 178.118 115.902C178.122 115.907 178.127 115.912 178.132 115.916C178.389 116.187 178.714 116.384 179.074 116.485C179.434 116.586 179.814 116.587 180.174 116.488C180.471 116.364 180.724 116.155 180.902 115.887C181.08 115.619 181.175 115.305 181.175 114.983C181.181 114.869 181.061 114.852 181.015 114.909Z" fill="#263238"/>
<path d="M178.784 110.602C178.485 111.256 178.053 111.841 177.517 112.321C176.98 112.8 176.351 113.163 175.667 113.388C175.073 113.59 174.452 113.708 173.825 113.736C173.705 113.748 173.585 113.748 173.465 113.736C173.352 113.742 173.24 113.742 173.127 113.736C173.044 113.732 172.964 113.701 172.9 113.647C172.836 113.594 172.791 113.521 172.773 113.439C172.767 113.388 172.767 113.336 172.773 113.285V113.153C172.572 112.009 172.435 110.202 172.435 110.202C172.04 110.476 170.004 111.757 169.953 111.145C169.541 106.06 169.077 100.409 169.735 95.2666C169.742 95.2343 169.759 95.2052 169.785 95.1843C169.81 95.1635 169.842 95.1521 169.875 95.1521C169.908 95.1521 169.94 95.1635 169.966 95.1843C169.991 95.2052 170.009 95.2343 170.016 95.2666C170.588 100.14 170.342 105.082 170.862 109.978C171.583 109.51 172.367 109.146 173.19 108.897C173.362 108.897 173.396 112.329 173.528 112.873C173.523 112.89 173.523 112.907 173.528 112.924C175.518 112.924 176.914 112.095 178.624 110.51C178.721 110.396 178.853 110.47 178.784 110.602Z" fill="#263238"/>
<path d="M195.864 102.565C191.929 103.452 189.378 99.282 187.181 93.2703C185.894 89.7525 185.889 82.4023 185.889 82.4023C185.889 82.4023 176.348 88.5342 170.507 88.7973C164.667 89.0604 159.067 84.7532 158.724 80.2173C158.433 76.2991 164.307 70.3732 172.876 68.8516C178.853 67.7934 189.652 71.254 195.001 77.117C195.001 77.117 203.049 79.7196 202.688 85.5826C202.328 91.4456 200.332 101.559 195.864 102.565Z" fill="#263238"/>
<path d="M195.521 102.148C190.424 103.961 186.592 96.4278 185.911 92.338C185.202 88.0766 186.266 83.5292 186.449 79.2563H186.415C185.317 84.5588 184.253 91.2226 186.689 96.2848C188.222 99.4765 191.408 104.665 195.624 102.428C195.767 102.348 195.681 102.091 195.521 102.148Z" fill="#263238"/>
<path d="M203.632 83.6836C202.425 80.2516 197.946 77.3287 194.48 76.9569C194.446 76.9569 194.434 77.0084 194.48 77.0141C198.701 77.9407 203.987 81.9619 203.34 86.6466C202.82 90.3874 201.722 95.3696 199.645 98.5613C199.594 98.6414 199.714 98.7158 199.771 98.6414C201.453 96.4506 201.962 93.8137 202.631 91.2054C203.186 88.9002 204.444 86.0574 203.632 83.6836Z" fill="#263238"/>
<path d="M195.836 77.5289C190.184 71.3513 178.899 64.9906 170.433 68.251C170.433 68.251 170.433 68.3025 170.433 68.2911C179.528 65.6313 188.966 72.4095 195.55 77.8549C195.756 78.0151 195.996 77.7005 195.836 77.5289Z" fill="#263238"/>
<path d="M193.336 103.143C193.336 103.143 196.396 94.8891 200.023 95.7985C203.649 96.708 202.619 107.811 199.262 110.139C198.852 110.47 198.38 110.716 197.873 110.86C197.366 111.005 196.835 111.046 196.312 110.98C195.789 110.914 195.285 110.743 194.829 110.478C194.374 110.213 193.977 109.858 193.662 109.435L193.336 103.143Z" fill="#FFBF9D"/>
<path d="M199.668 98.956C199.731 98.956 199.76 99.0132 199.714 99.0532C197.386 100.769 196.642 103.566 196.339 106.323C196.86 105.179 197.78 104.35 199.313 104.933C199.394 104.962 199.359 105.088 199.279 105.088C198.782 105.062 198.29 105.191 197.869 105.456C197.448 105.722 197.12 106.11 196.928 106.569C196.618 107.34 196.39 108.142 196.248 108.96C196.185 109.229 195.733 109.212 195.75 108.92C195.747 108.899 195.747 108.878 195.75 108.857C194.818 105.563 196.196 100.237 199.668 98.956Z" fill="#263238"/>
<path d="M182.874 139.768L194.886 175.581C195.355 176.622 194.886 177.532 193.834 177.612L174.981 179.036C174.405 179.039 173.841 178.88 173.352 178.576C172.863 178.273 172.47 177.837 172.218 177.32L160.206 141.507C159.737 140.46 160.206 139.551 161.258 139.471L180.1 138.024C180.68 138.022 181.249 138.185 181.74 138.494C182.231 138.803 182.624 139.245 182.874 139.768Z" fill="#37474F"/>
<path d="M180.632 139.917L192.644 175.73C193.113 176.771 192.644 177.686 191.591 177.766L172.744 179.213C172.166 179.213 171.6 179.048 171.111 178.74C170.622 178.431 170.23 177.99 169.981 177.469L157.969 141.656C157.494 140.615 157.969 139.705 159.022 139.625L177.892 138.178C178.466 138.181 179.027 138.346 179.512 138.654C179.997 138.961 180.385 139.399 180.632 139.917Z" fill="#455A64"/>
<path d="M175.604 141.982C175.635 142.298 175.759 142.598 175.961 142.844C176.162 143.09 176.432 143.271 176.736 143.363C177.041 143.456 177.366 143.456 177.67 143.364C177.974 143.271 178.244 143.091 178.446 142.845C178.648 142.599 178.772 142.299 178.803 141.983C178.834 141.666 178.771 141.348 178.621 141.067C178.471 140.787 178.241 140.557 177.961 140.408C177.68 140.258 177.362 140.194 177.045 140.226C176.621 140.268 176.232 140.476 175.961 140.806C175.691 141.135 175.562 141.558 175.604 141.982Z" fill="#263238"/>
<path d="M255.306 219.076C247.104 220.271 236.751 213.985 209.924 194.858C206.206 192.192 217.84 160.978 221.936 163.592C227.113 166.892 246.486 180.838 247.773 182.039C258.658 192.192 260.883 218.218 255.306 219.076Z" fill="#FFBF9D"/>
<path d="M231.563 172.898C231.563 172.898 223.864 162.351 218.104 158.055C210.387 152.335 201.361 150.527 197.512 150.007C189.504 148.92 169.484 151.82 169.283 157.746C169.123 163.111 189.486 159.107 189.486 159.107C189.486 159.107 168.054 159.76 169.049 166.252C170.044 172.744 193.428 166.761 193.428 166.761C193.428 166.761 171.417 167.905 173.505 174.46C175.083 179.396 196.562 175.164 196.562 175.164C196.562 175.164 177.652 176.308 179.053 181.456C180.609 187.141 200.675 184.481 200.675 184.481C206.492 196.951 214.328 200.537 220.22 202.419C221.644 202.871 231.563 172.898 231.563 172.898Z" fill="#FFBF9D"/>
<path d="M196.911 158.41C194.388 158.41 191.837 158.364 189.326 158.57C186.815 158.776 184.304 159.079 181.822 159.519C175.73 160.606 172.098 162.242 172.326 162.162C177.909 160.36 186.889 159.468 189.406 159.256C191.923 159.045 194.411 158.713 196.922 158.501C196.985 158.495 196.968 158.41 196.911 158.41Z" fill="#263238"/>
<path d="M197.832 167.47C194.611 167.59 191.414 167.59 188.199 167.853C184.985 168.117 181.987 168.648 178.813 169.129C178.567 169.163 178.67 169.283 178.916 169.255C182.102 168.9 185.082 168.82 188.274 168.505C191.465 168.191 194.652 167.745 197.843 167.545C197.912 167.545 197.912 167.47 197.832 167.47Z" fill="#263238"/>
<path d="M200.023 175.106C195.092 175.038 190.156 175.879 185.334 176.822C185.093 176.868 185.242 177.011 185.488 176.977C190.362 176.313 194.177 175.758 200.023 175.261C200.108 175.267 200.126 175.106 200.023 175.106Z" fill="#263238"/>
<path d="M240.383 176.536C242.511 177.938 244.559 179.454 246.543 181.061C247.539 181.857 248.494 182.702 249.403 183.595C250.346 184.482 251.174 185.483 251.869 186.575C253.19 188.772 254.298 191.089 255.181 193.496C256.096 195.883 256.745 198.363 257.114 200.892C256.84 199.652 256.496 198.427 256.084 197.226C255.69 196.019 255.255 194.829 254.769 193.656C253.839 191.305 252.706 189.039 251.383 186.884C250.73 185.814 249.941 184.834 249.037 183.967C248.151 183.069 247.195 182.251 246.246 181.393C245.296 180.535 244.313 179.745 243.329 178.939C242.345 178.132 241.384 177.32 240.383 176.536Z" fill="#263238"/>
</svg>
